<svg version="1.1" id="Layer_1" xmlns="http://www.w3.org/2000/svg" xmlns:xlink="http://www.w3.org/1999/xlink" x="0px" y="0px"
	 width="100%" viewBox="0 0 51 51" enable-background="new 0 0 51 51" xml:space="preserve">
<path fill="#000000" opacity="1.000000" stroke="none" 
	d="
M24.000084,52.000000 
	C16.018534,52.000000 8.536960,52.000000 1.027693,52.000000 
	C1.027693,35.060265 1.027693,18.120476 1.027693,1.090342 
	C17.897575,1.090342 34.795795,1.090342 51.847008,1.090342 
	C51.847008,17.998941 51.847008,34.999313 51.847008,52.000000 
	C42.788361,52.000000 33.644211,52.000000 24.000084,52.000000 
M7.000901,33.469276 
	C7.000901,37.373920 7.000901,41.278568 7.000901,46.285164 
	C9.038112,44.467537 10.205974,43.453709 11.342709,42.406105 
	C14.849882,39.173927 18.643831,37.328259 23.748180,37.878563 
	C28.854397,38.429066 34.066826,38.043728 39.231792,37.986794 
	C44.967270,37.923565 45.979469,36.910774 45.994728,31.395895 
	C46.012245,25.063927 45.922367,18.730639 46.025826,12.400320 
	C46.087284,8.639828 44.491947,6.939997 40.681377,6.973611 
	C31.017475,7.058860 21.349161,7.144291 11.689199,6.931136 
	C7.808979,6.845515 6.840012,8.437616 6.943428,11.984622 
	C7.142449,18.810728 7.001095,25.646757 7.000901,33.469276 
z"/>
<path fill="#673AB7" opacity="1.000000" stroke="none" 
	d="
M7.000901,32.973976 
	C7.001095,25.646757 7.142449,18.810728 6.943428,11.984622 
	C6.840012,8.437616 7.808979,6.845515 11.689199,6.931136 
	C21.349161,7.144291 31.017475,7.058860 40.681377,6.973611 
	C44.491947,6.939997 46.087284,8.639828 46.025826,12.400320 
	C45.922367,18.730639 46.012245,25.063927 45.994728,31.395895 
	C45.979469,36.910774 44.967270,37.923565 39.231792,37.986794 
	C34.066826,38.043728 28.854397,38.429066 23.748180,37.878563 
	C18.643831,37.328259 14.849882,39.173927 11.342709,42.406105 
	C10.205974,43.453709 9.038112,44.467537 7.000901,46.285164 
	C7.000901,41.278568 7.000901,37.373920 7.000901,32.973976 
M40.852211,21.515797 
	C40.561821,21.424299 40.271427,21.332804 39.051357,21.136808 
	C30.043741,21.171646 21.036127,21.206484 11.525339,21.161348 
	C11.405081,21.446465 11.284822,21.731579 11.414063,22.855988 
	C20.785799,22.959610 30.157469,23.078676 39.529480,23.117802 
	C39.963657,23.119612 40.400826,22.405579 40.852211,21.515797 
M39.979378,17.904982 
	C41.311108,14.989673 38.752655,15.997162 37.809689,15.986163 
	C29.701521,15.891585 21.591610,15.915702 13.482639,15.968543 
	C12.682077,15.973760 11.884308,16.407610 11.085243,16.642511 
	C11.124473,17.089909 11.163703,17.537306 11.202933,17.984703 
	C20.486523,17.984703 29.770113,17.984703 39.979378,17.904982 
M17.770050,26.999929 
	C16.226566,26.999929 14.683083,26.999929 13.139599,26.999929 
	C13.143897,27.256184 13.148195,27.512436 13.152493,27.768690 
	C17.737659,27.768690 22.322826,27.768690 26.907991,27.768690 
	C26.914675,27.512436 26.921358,27.256184 26.928040,26.999929 
	C24.172235,26.999929 21.416430,26.999929 17.770050,26.999929 
z"/>
<path fill="#FFFFFF" opacity="1.000000" stroke="none" 
	d="
M39.516541,17.944843 
	C29.770113,17.984703 20.486523,17.984703 11.202933,17.984703 
	C11.163703,17.537306 11.124473,17.089909 11.085243,16.642511 
	C11.884308,16.407610 12.682077,15.973760 13.482639,15.968543 
	C21.591610,15.915702 29.701521,15.891585 37.809689,15.986163 
	C38.752655,15.997162 41.311108,14.989673 39.516541,17.944843 
z"/>
<path fill="#FFFFFF" opacity="1.000000" stroke="none" 
	d="
M12.028512,21.241322 
	C21.036127,21.206484 30.043741,21.171646 39.630821,21.347662 
	C40.396580,21.744173 40.605350,21.899647 40.836601,22.024937 
	C40.400826,22.405579 39.963657,23.119612 39.529480,23.117802 
	C30.157469,23.078676 20.785799,22.959610 11.454948,22.331951 
	C11.716684,21.659750 11.894244,21.470886 12.028512,21.241322 
z"/>
<path fill="#FFFFFF" opacity="1.000000" stroke="none" 
	d="
M18.215338,26.999929 
	C21.416430,26.999929 24.172235,26.999929 26.928040,26.999929 
	C26.921358,27.256184 26.914675,27.512436 26.907991,27.768690 
	C22.322826,27.768690 17.737659,27.768690 13.152493,27.768690 
	C13.148195,27.512436 13.143897,27.256184 13.139599,26.999929 
	C14.683083,26.999929 16.226566,26.999929 18.215338,26.999929 
z"/>
<path fill="#E3DBF2" opacity="1.000000" stroke="none" 
	d="
M11.776926,21.201336 
	C11.894244,21.470886 11.716684,21.659750 11.330198,21.912304 
	C11.284822,21.731579 11.405081,21.446465 11.776926,21.201336 
z"/>
<path fill="#E3DBF2" opacity="1.000000" stroke="none" 
	d="
M40.844406,21.770367 
	C40.605350,21.899647 40.396580,21.744173 40.095657,21.399910 
	C40.271427,21.332804 40.561821,21.424299 40.844406,21.770367 
z"/>
</svg>